<svg xmlns="http://www.w3.org/2000/svg" width="153.008" height="50.823" viewBox="0 0 153.008 50.823"><defs><style>.a{fill:#d10d74;}</style></defs><path class="a" d="M17.959,25.406A10.057,10.057,0,0,0,28.021,35.468C14.51,35.468,5.66,29,5.66,15.349V0s12.3,0,12.3,11.393Z" transform="translate(-2.61)"/><path class="a" d="M38.552,17.959A10.062,10.062,0,0,0,28.49,28.021C28.49,14.51,34.957,5.66,48.609,5.66H63.964s0,12.3-11.393,12.3Z" transform="translate(-13.135 -2.61)"/><path class="a" d="M57.212,38.552A10.057,10.057,0,0,0,47.15,28.49c13.511,0,22.366,6.467,22.366,20.124V63.958s-12.3,0-12.3-11.388V38.558Z" transform="translate(-21.738 -13.135)"/><path class="a" d="M25.406,57.218A10.062,10.062,0,0,0,35.468,47.15c0,13.511-6.467,22.366-20.119,22.366H0s0-12.3,11.393-12.3Z" transform="translate(0 -21.739)"/><path class="a" d="M207.482,41.684c0,3.724-4.031,5.066-6.618,5.066-2.07,0-5.433-.776-5.433-3.412,0-3.1,2.274-4.037,4.813-4.446s5.427-.415,7.238-1.617v4.4Zm5.9-10.709c0-5.637-5.481-7.755-10.7-7.755-5.9,0-11.738,2.016-12.153,8.9h5.9c.259-2.9,2.582-4.242,5.9-4.242,2.377,0,5.53.539,5.53,3.616,0,3.465-3.773,3-8.014,3.773-4.964.566-10.289,1.655-10.289,8.327,0,5.222,4.339,7.809,9.162,7.809,3.153,0,6.931-.986,9.259-3.234.464,2.431,2.156,3.234,4.549,3.234a14.713,14.713,0,0,0,3.724-.674s-2.846-.539-2.846-6V30.975Z" transform="translate(-87.387 -10.706)"/><path class="a" d="M129.374,29.244c0,4.651-2.016,9.41-7.394,9.41-4.759,0-7.5-4.031-7.5-9.41,0-5.691,2.533-9.464,7.5-9.464,4.851,0,7.394,4.6,7.394,9.464m-20.6,13.339h5.584v-3.67h.1c1.762,3.519,5.637,4.4,9.259,4.4,7.912,0,11.534-6.775,11.534-13.964,0-7.809-4.085-14.223-12.514-14.223a9.778,9.778,0,0,0-7.966,4.188h-.1V12.036a5.935,5.935,0,0,0-5.9-6.376V42.583Z" transform="translate(-50.148 -2.61)"/><path class="a" d="M161.34,50.679h5.9V37.96c0-5.9,3.207-9.162,7.243-9.162a21.348,21.348,0,0,1,2.533.259V23.376a13.716,13.716,0,0,0-2.226-.156c-3.616,0-7.136,3.05-7.809,5.9h-.1V23.941H161.34Z" transform="translate(-74.386 -10.705)"/><path class="a" d="M262.314,32.889c-.539-6.564-5.842-9.669-12.046-9.669-8.8,0-13.188,6.311-13.188,14.379,0,7.858,4.6,13.808,12.978,13.808,6.877,0,11.172-3.832,12.256-10.779h-5.875c-.571,3.827-2.948,6.1-6.365,6.1-5.12,0-7.082-4.705-7.082-9.162,0-8.122,4.312-9.7,7.341-9.7,3.261,0,5.637,1.757,6.106,5.012Z" transform="translate(-109.306 -10.706)"/></svg>