<svg xmlns="http://www.w3.org/2000/svg" width="48" height="48" viewBox="0 0 48 48">
  <g id="Group_115" data-name="Group 115" transform="translate(-907 -498)">
    <rect id="Rectangle_848" data-name="Rectangle 848" width="48" height="48" rx="10" transform="translate(907 498)" fill="#ccc"/>
    <path id="Icon_metro-calendar" data-name="Icon metro-calendar" d="M8.836,9.446h2.506v2.506H8.836Zm3.759,0H15.1v2.506H12.6Zm3.759,0H18.86v2.506H16.354ZM5.077,16.965H7.583v2.506H5.077Zm3.759,0h2.506v2.506H8.836Zm3.759,0H15.1v2.506H12.6ZM8.836,13.205h2.506v2.506H8.836Zm3.759,0H15.1v2.506H12.6Zm3.759,0H18.86v2.506H16.354Zm-11.277,0H7.583v2.506H5.077ZM18.86,1.928V3.181H16.354V1.928H7.583V3.181H5.077V1.928H2.571V21.977h18.8V1.928H18.86Zm1.253,18.8H3.824V6.94h16.29Z" transform="translate(918.871 510.048)" fill="#fff"/>
  </g>
</svg>
