<svg xmlns="http://www.w3.org/2000/svg" width="60" height="60" viewBox="0 0 60 60">
  <path id="Icon_ionic-ios-checkmark-circle" data-name="Icon ionic-ios-checkmark-circle" d="M33.375,3.375a30,30,0,1,0,30,30A30,30,0,0,0,33.375,3.375ZM48.736,25.082,29.452,44.452h-.014a2.6,2.6,0,0,1-1.673.793,2.525,2.525,0,0,1-1.688-.822L18,36.346a.575.575,0,0,1,0-.822l2.567-2.567a.558.558,0,0,1,.808,0l6.4,6.4,17.6-17.726a.57.57,0,0,1,.4-.173h0a.524.524,0,0,1,.4.173l2.524,2.611A.569.569,0,0,1,48.736,25.082Z" transform="translate(-3.375 -3.375)" fill="#5cc337"/>
</svg>
