<svg id="Icon_metro-eye" data-name="Icon metro-eye" xmlns="http://www.w3.org/2000/svg" width="15.983" height="9.989" viewBox="0 0 15.983 9.989">
  <path id="Icon_metro-eye-2" data-name="Icon metro-eye" d="M10.562,7.712a8.951,8.951,0,0,0-7.991,4.995,8.89,8.89,0,0,0,15.983,0A8.951,8.951,0,0,0,10.562,7.712Zm3.94,2.649a7.6,7.6,0,0,1,2.332,2.346A7.6,7.6,0,0,1,14.5,15.053a7.323,7.323,0,0,1-7.881,0,7.6,7.6,0,0,1-2.332-2.346,7.6,7.6,0,0,1,2.332-2.346c.061-.039.123-.077.185-.114a4,4,0,1,0,7.51,0q.093.056.185.114Zm-3.94.847a1.5,1.5,0,1,1-1.5-1.5A1.5,1.5,0,0,1,10.562,11.208Z" transform="translate(-2.571 -7.712)" fill="#ccc"/>
</svg>
