<svg xmlns="http://www.w3.org/2000/svg" width="18" height="24" viewBox="0 0 18 24">
  <path id="Icon_awesome-file-contract" data-name="Icon awesome-file-contract" d="M10.5,6.375V0H1.125A1.122,1.122,0,0,0,0,1.125v21.75A1.122,1.122,0,0,0,1.125,24h15.75A1.122,1.122,0,0,0,18,22.875V7.5H11.625A1.128,1.128,0,0,1,10.5,6.375Zm-7.5-3A.375.375,0,0,1,3.375,3h3.75a.375.375,0,0,1,.375.375v.75a.375.375,0,0,1-.375.375H3.375A.375.375,0,0,1,3,4.125Zm0,3A.375.375,0,0,1,3.375,6h3.75a.375.375,0,0,1,.375.375v.75a.375.375,0,0,1-.375.375H3.375A.375.375,0,0,1,3,7.125ZM12.038,18H14.25a.75.75,0,0,1,0,1.5H12.038a2.015,2.015,0,0,1-1.811-1.118.519.519,0,0,0-.477-.306.511.511,0,0,0-.47.29l-.36.719a.749.749,0,0,1-.671.414l-.053,0a.747.747,0,0,1-.658-.51L6.75,16.621l-.5,1.494A2.024,2.024,0,0,1,4.331,19.5H3.75a.75.75,0,0,1,0-1.5h.581a.525.525,0,0,0,.5-.359l.853-2.561a1.125,1.125,0,0,1,2.135,0l.651,1.952a2.1,2.1,0,0,1,3.094.664A.535.535,0,0,0,12.038,18ZM17.672,4.922,13.083.328a1.124,1.124,0,0,0-.8-.328H12V6h6V5.714A1.121,1.121,0,0,0,17.672,4.922Z" fill="#4d4f53"/>
</svg>
