<svg xmlns="http://www.w3.org/2000/svg" width="20.329" height="20.329" viewBox="0 0 20.329 20.329">
  <path id="Icon_ionic-ios-list-box" data-name="Icon ionic-ios-list-box" d="M3.375,5.07V22.009a1.7,1.7,0,0,0,1.7,1.7H22.009a1.7,1.7,0,0,0,1.7-1.7V5.07a1.7,1.7,0,0,0-1.7-1.7H5.07A1.693,1.693,0,0,0,3.375,5.07ZM7.738,19.585a.976.976,0,1,1,.84-.84A.973.973,0,0,1,7.738,19.585Zm0-5.081a.976.976,0,1,1,.84-.84A.973.973,0,0,1,7.738,14.5Zm0-5.081a.976.976,0,1,1,.84-.84A.973.973,0,0,1,7.738,9.423ZM19.825,19.3H11.031a.686.686,0,0,1-.684-.684h0a.686.686,0,0,1,.684-.684h8.794a.686.686,0,0,1,.684.684h0A.686.686,0,0,1,19.825,19.3Zm0-5.081H11.031a.686.686,0,0,1-.684-.684h0a.686.686,0,0,1,.684-.684h8.794a.686.686,0,0,1,.684.684h0A.686.686,0,0,1,19.825,14.221Zm0-5.081H11.031a.686.686,0,0,1-.684-.684h0a.686.686,0,0,1,.684-.684h8.794a.686.686,0,0,1,.684.684h0A.686.686,0,0,1,19.825,9.14Z" transform="translate(-3.375 -3.375)" fill="#4d4f53"/>
</svg>
