<svg id="Icon_material-thumb-down" data-name="Icon material-thumb-down" xmlns="http://www.w3.org/2000/svg" width="12.98" height="11.8" viewBox="0 0 12.98 11.8">
  <path id="Icon_material-thumb-down-2" data-name="Icon material-thumb-down" d="M9.76,4.5H4.45a1.172,1.172,0,0,0-1.086.72L1.583,9.379A1.166,1.166,0,0,0,1.5,9.81v1.127l.006.006L1.5,10.99a1.183,1.183,0,0,0,1.18,1.18H6.4l-.561,2.7-.018.189a.888.888,0,0,0,.26.625l.625.62L10.6,12.412a1.173,1.173,0,0,0,.342-.832V5.68A1.183,1.183,0,0,0,9.76,4.5Zm2.36,0v7.08h2.36V4.5Z" transform="translate(-1.5 -4.5)" fill="#ccc"/>
</svg>
