<svg xmlns="http://www.w3.org/2000/svg" width="8.913" height="14.26" viewBox="0 0 8.913 14.26">
  <path id="Icon_awesome-mobile-alt" data-name="Icon awesome-mobile-alt" d="M7.576,0H1.337A1.337,1.337,0,0,0,0,1.337V12.923A1.337,1.337,0,0,0,1.337,14.26H7.576a1.337,1.337,0,0,0,1.337-1.337V1.337A1.337,1.337,0,0,0,7.576,0ZM4.456,13.369a.891.891,0,1,1,.891-.891A.89.89,0,0,1,4.456,13.369Zm3.119-3.008a.335.335,0,0,1-.334.334H1.671a.335.335,0,0,1-.334-.334V1.671a.335.335,0,0,1,.334-.334h5.57a.335.335,0,0,1,.334.334Z" fill="#ccc"/>
</svg>
