<svg xmlns="http://www.w3.org/2000/svg" width="15" height="13.125" viewBox="0 0 15 13.125">
  <path id="Icon_awesome-briefcase" data-name="Icon awesome-briefcase" d="M9.375,11.156a.469.469,0,0,1-.469.469H6.094a.469.469,0,0,1-.469-.469V9.75H0v4.219a1.442,1.442,0,0,0,1.406,1.406H13.594A1.442,1.442,0,0,0,15,13.969V9.75H9.375Zm4.219-6.094H11.25V3.656A1.442,1.442,0,0,0,9.844,2.25H5.156A1.442,1.442,0,0,0,3.75,3.656V5.063H1.406A1.442,1.442,0,0,0,0,6.469V8.812H15V6.469A1.442,1.442,0,0,0,13.594,5.063Zm-4.219,0H5.625V4.125h3.75Z" transform="translate(0 -2.25)" fill="#ccc"/>
</svg>
