<svg id="Icon_material-thumb-up" data-name="Icon material-thumb-up" xmlns="http://www.w3.org/2000/svg" width="12.98" height="11.8" viewBox="0 0 12.98 11.8">
  <path id="Icon_material-thumb-up-2" data-name="Icon material-thumb-up" d="M1.5,13.3H3.86V6.22H1.5ZM14.48,6.81A1.183,1.183,0,0,0,13.3,5.63H9.577l.561-2.7.018-.189A.888.888,0,0,0,9.9,2.12L9.27,1.5,5.388,5.388a1.154,1.154,0,0,0-.348.832v5.9A1.183,1.183,0,0,0,6.22,13.3h5.31a1.172,1.172,0,0,0,1.086-.72L14.4,8.421a1.166,1.166,0,0,0,.083-.431V6.863l-.006-.006Z" transform="translate(-1.5 -1.5)" fill="#ccc"/>
</svg>
