<svg xmlns="http://www.w3.org/2000/svg" width="15" height="12.001" viewBox="0 0 15 12.001">
  <path id="Icon_awesome-user-edit" data-name="Icon awesome-user-edit" d="M5.25,6a3,3,0,1,0-3-3A3,3,0,0,0,5.25,6Zm2.1.75H6.959a4.08,4.08,0,0,1-3.417,0H3.15A3.151,3.151,0,0,0,0,9.9v.975A1.125,1.125,0,0,0,1.125,12H7.568a1.126,1.126,0,0,1-.061-.5l.159-1.427.028-.26.185-.185L9.692,7.817A3.118,3.118,0,0,0,7.35,6.75Zm1.062,3.406-.159,1.43A.373.373,0,0,0,8.665,12l1.427-.159,3.232-3.232L11.644,6.926l-3.232,3.23ZM14.837,6.3l-.888-.888a.562.562,0,0,0-.792,0L12.27,6.3l-.1.1,1.683,1.681.98-.98a.564.564,0,0,0,0-.795Z" fill="#ccc"/>
</svg>
